<svg id="visual" viewBox="0 0 900 600" width="900" height="600" xmlns="http://www.w3.org/2000/svg" xmlns:xlink="http://www.w3.org/1999/xlink" version="1.1"><rect x="0" y="0" width="900" height="600" fill="#fdffe3"></rect><defs><linearGradient id="grad1_0" x1="33.3%" y1="0%" x2="100%" y2="100%"><stop offset="20%" stop-color="#a8f5ff" stop-opacity="1"></stop><stop offset="80%" stop-color="#a8f5ff" stop-opacity="1"></stop></linearGradient></defs><defs><linearGradient id="grad1_1" x1="33.3%" y1="0%" x2="100%" y2="100%"><stop offset="20%" stop-color="#a8f5ff" stop-opacity="1"></stop><stop offset="80%" stop-color="#c1fbed" stop-opacity="1"></stop></linearGradient></defs><defs><linearGradient id="grad1_2" x1="33.3%" y1="0%" x2="100%" y2="100%"><stop offset="20%" stop-color="#e1fee2" stop-opacity="1"></stop><stop offset="80%" stop-color="#c1fbed" stop-opacity="1"></stop></linearGradient></defs><defs><linearGradient id="grad1_3" x1="33.3%" y1="0%" x2="100%" y2="100%"><stop offset="20%" stop-color="#e1fee2" stop-opacity="1"></stop><stop offset="80%" stop-color="#fdffe3" stop-opacity="1"></stop></linearGradient></defs><defs><linearGradient id="grad2_0" x1="0%" y1="0%" x2="66.7%" y2="100%"><stop offset="20%" stop-color="#a8f5ff" stop-opacity="1"></stop><stop offset="80%" stop-color="#a8f5ff" stop-opacity="1"></stop></linearGradient></defs><defs><linearGradient id="grad2_1" x1="0%" y1="0%" x2="66.7%" y2="100%"><stop offset="20%" stop-color="#c1fbed" stop-opacity="1"></stop><stop offset="80%" stop-color="#a8f5ff" stop-opacity="1"></stop></linearGradient></defs><defs><linearGradient id="grad2_2" x1="0%" y1="0%" x2="66.7%" y2="100%"><stop offset="20%" stop-color="#c1fbed" stop-opacity="1"></stop><stop offset="80%" stop-color="#e1fee2" stop-opacity="1"></stop></linearGradient></defs><defs><linearGradient id="grad2_3" x1="0%" y1="0%" x2="66.7%" y2="100%"><stop offset="20%" stop-color="#fdffe3" stop-opacity="1"></stop><stop offset="80%" stop-color="#e1fee2" stop-opacity="1"></stop></linearGradient></defs><g transform="translate(900, 0)"><path d="M0 502C-74.1 514.7 -148.2 527.4 -207 499.7C-265.7 472 -309.1 403.9 -342.9 342.9C-376.8 282 -401 228.2 -415.7 172.2C-430.5 116.2 -435.7 58.1 -441 0L0 0Z" fill="#f0fee1"></path><path d="M0 376.5C-55.6 386 -111.2 395.5 -155.2 374.7C-199.3 354 -231.8 302.9 -257.2 257.2C-282.6 211.5 -300.8 171.1 -311.8 129.2C-322.9 87.2 -326.8 43.6 -330.7 0L0 0Z" fill="#d1fce6"></path><path d="M0 251C-37.1 257.3 -74.1 263.7 -103.5 249.8C-132.9 236 -154.6 201.9 -171.5 171.5C-188.4 141 -200.5 114.1 -207.9 86.1C-215.2 58.1 -217.9 29.1 -220.5 0L0 0Z" fill="#b3f8f5"></path><path d="M0 125.5C-18.5 128.7 -37.1 131.8 -51.7 124.9C-66.4 118 -77.3 101 -85.7 85.7C-94.2 70.5 -100.3 57 -103.9 43.1C-107.6 29.1 -108.9 14.5 -110.2 0L0 0Z" fill="#a8f5ff"></path></g><g transform="translate(0, 600)"><path d="M0 -500C80.4 -514.9 160.8 -529.8 200.9 -485C241 -440.2 240.8 -335.7 282.8 -282.8C324.9 -230 409.1 -228.7 459.2 -190.2C509.2 -151.7 525 -75.8 540.8 0L0 0Z" fill="#f0fee1"></path><path d="M0 -375C60.3 -386.2 120.6 -397.4 150.7 -363.8C180.8 -330.2 180.6 -251.8 212.1 -212.1C243.7 -172.5 306.8 -171.5 344.4 -142.6C381.9 -113.7 393.8 -56.9 405.6 0L0 0Z" fill="#d1fce6"></path><path d="M0 -250C40.2 -257.5 80.4 -264.9 100.5 -242.5C120.5 -220.1 120.4 -167.9 141.4 -141.4C162.4 -115 204.6 -114.4 229.6 -95.1C254.6 -75.8 262.5 -37.9 270.4 0L0 0Z" fill="#b3f8f5"></path><path d="M0 -125C20.1 -128.7 40.2 -132.5 50.2 -121.3C60.3 -110.1 60.2 -83.9 70.7 -70.7C81.2 -57.5 102.3 -57.2 114.8 -47.5C127.3 -37.9 131.3 -19 135.2 0L0 0Z" fill="#a8f5ff"></path></g></svg>